<svg width="120" height="45" viewBox="0 0 120 45" fill="none" xmlns="http://www.w3.org/2000/svg">
<path d="M7.125 3.78523C7.125 4.3219 7.04 4.81023 6.87 5.25023C6.7 5.69023 6.46 6.0669 6.15 6.38023C5.84 6.69357 5.46667 6.9369 5.03 7.11023C4.59667 7.28023 4.11667 7.36523 3.59 7.36523L0.915 7.36523L0.915 0.200234L3.59 0.200234C4.11667 0.200234 4.59667 0.286901 5.03 0.460234C5.46667 0.630234 5.84 0.873568 6.15 1.19023C6.46 1.50357 6.7 1.88023 6.87 2.32023C7.04 2.76023 7.125 3.24857 7.125 3.78523ZM6.13 3.78523C6.13 3.34523 6.07 2.9519 5.95 2.60523C5.83 2.25857 5.66 1.96523 5.44 1.72523C5.22 1.48523 4.95333 1.3019 4.64 1.17523C4.32667 1.04857 3.97667 0.985234 3.59 0.985234L1.885 0.985234L1.885 6.58023L3.59 6.58023C3.97667 6.58023 4.32667 6.5169 4.64 6.39023C4.95333 6.26357 5.22 6.0819 5.44 5.84523C5.66 5.60523 5.83 5.3119 5.95 4.96523C6.07 4.61857 6.13 4.22523 6.13 3.78523ZM11.8841 4.28023C11.8841 4.07357 11.8541 3.88523 11.7941 3.71523C11.7374 3.5419 11.6524 3.39357 11.5391 3.27023C11.4291 3.14357 11.2941 3.0469 11.1341 2.98023C10.9741 2.91023 10.7924 2.87523 10.5891 2.87523C10.1624 2.87523 9.82406 3.00023 9.57406 3.25023C9.3274 3.4969 9.17406 3.84023 9.11406 4.28023H11.8841ZM12.6041 6.65523C12.4941 6.78857 12.3624 6.90523 12.2091 7.00523C12.0557 7.1019 11.8907 7.1819 11.7141 7.24523C11.5407 7.30857 11.3607 7.35523 11.1741 7.38523C10.9874 7.41857 10.8024 7.43523 10.6191 7.43523C10.2691 7.43523 9.94573 7.3769 9.64906 7.26023C9.35573 7.14023 9.10073 6.9669 8.88406 6.74023C8.67073 6.51023 8.50406 6.2269 8.38406 5.89023C8.26406 5.55357 8.20406 5.1669 8.20406 4.73023C8.20406 4.3769 8.2574 4.0469 8.36406 3.74023C8.47406 3.43357 8.63073 3.16857 8.83406 2.94523C9.0374 2.71857 9.28573 2.5419 9.57906 2.41523C9.8724 2.28523 10.2024 2.22023 10.5691 2.22023C10.8724 2.22023 11.1524 2.2719 11.4091 2.37523C11.6691 2.47523 11.8924 2.6219 12.0791 2.81523C12.2691 3.00523 12.4174 3.2419 12.5241 3.52523C12.6307 3.80523 12.6841 4.12523 12.6841 4.48523C12.6841 4.62523 12.6691 4.71857 12.6391 4.76523C12.6091 4.8119 12.5524 4.83523 12.4691 4.83523H9.08406C9.09406 5.15523 9.1374 5.43357 9.21406 5.67023C9.29406 5.9069 9.40406 6.10523 9.54406 6.26523C9.68406 6.4219 9.85073 6.54023 10.0441 6.62023C10.2374 6.6969 10.4541 6.73523 10.6941 6.73523C10.9174 6.73523 11.1091 6.71023 11.2691 6.66023C11.4324 6.6069 11.5724 6.55023 11.6891 6.49023C11.8057 6.43023 11.9024 6.37523 11.9791 6.32523C12.0591 6.2719 12.1274 6.24523 12.1841 6.24523C12.2574 6.24523 12.3141 6.27357 12.3541 6.33023L12.6041 6.65523ZM16.9773 3.13523C16.9373 3.20857 16.8756 3.24523 16.7923 3.24523C16.7423 3.24523 16.6856 3.2269 16.6223 3.19023C16.5589 3.15357 16.4806 3.11357 16.3873 3.07023C16.2973 3.02357 16.1889 2.9819 16.0623 2.94523C15.9356 2.90523 15.7856 2.88523 15.6123 2.88523C15.4623 2.88523 15.3273 2.90523 15.2073 2.94523C15.0873 2.9819 14.9839 3.03357 14.8973 3.10023C14.8139 3.1669 14.7489 3.24523 14.7023 3.33523C14.6589 3.4219 14.6373 3.5169 14.6373 3.62023C14.6373 3.75023 14.6739 3.85857 14.7473 3.94523C14.8239 4.0319 14.9239 4.1069 15.0473 4.17023C15.1706 4.23357 15.3106 4.29023 15.4673 4.34023C15.6239 4.3869 15.7839 4.43857 15.9473 4.49523C16.1139 4.54857 16.2756 4.60857 16.4323 4.67523C16.5889 4.7419 16.7289 4.82523 16.8523 4.92523C16.9756 5.02523 17.0739 5.14857 17.1473 5.29523C17.2239 5.43857 17.2623 5.6119 17.2623 5.81523C17.2623 6.04857 17.2206 6.26523 17.1373 6.46523C17.0539 6.6619 16.9306 6.83357 16.7673 6.98023C16.6039 7.12357 16.4039 7.2369 16.1673 7.32023C15.9306 7.40357 15.6573 7.44523 15.3473 7.44523C14.9939 7.44523 14.6739 7.38857 14.3873 7.27523C14.1006 7.15857 13.8573 7.01023 13.6573 6.83023L13.8673 6.49023C13.8939 6.4469 13.9256 6.41357 13.9623 6.39023C13.9989 6.3669 14.0456 6.35523 14.1023 6.35523C14.1623 6.35523 14.2256 6.37857 14.2923 6.42523C14.3589 6.4719 14.4389 6.52357 14.5323 6.58023C14.6289 6.6369 14.7456 6.68857 14.8823 6.73523C15.0189 6.7819 15.1889 6.80523 15.3923 6.80523C15.5656 6.80523 15.7173 6.78357 15.8473 6.74023C15.9773 6.69357 16.0856 6.6319 16.1723 6.55523C16.2589 6.47857 16.3223 6.39023 16.3623 6.29023C16.4056 6.19023 16.4273 6.08357 16.4273 5.97023C16.4273 5.83023 16.3889 5.71523 16.3123 5.62523C16.2389 5.5319 16.1406 5.45357 16.0173 5.39023C15.8939 5.32357 15.7523 5.2669 15.5923 5.22023C15.4356 5.17023 15.2739 5.11857 15.1073 5.06523C14.9439 5.0119 14.7823 4.9519 14.6223 4.88523C14.4656 4.81523 14.3256 4.72857 14.2023 4.62523C14.0789 4.5219 13.9789 4.39523 13.9023 4.24523C13.8289 4.0919 13.7923 3.9069 13.7923 3.69023C13.7923 3.4969 13.8323 3.3119 13.9123 3.13523C13.9923 2.95523 14.1089 2.79857 14.2623 2.66523C14.4156 2.52857 14.6039 2.42023 14.8273 2.34023C15.0506 2.26023 15.3056 2.22023 15.5923 2.22023C15.9256 2.22023 16.2239 2.27357 16.4873 2.38023C16.7539 2.48357 16.9839 2.6269 17.1773 2.81023L16.9773 3.13523ZM19.5434 2.30023V7.36523L18.6534 7.36523V2.30023H19.5434ZM19.7334 0.710234C19.7334 0.796901 19.7151 0.878567 19.6784 0.955234C19.6451 1.02857 19.5984 1.09523 19.5384 1.15523C19.4818 1.2119 19.4134 1.2569 19.3334 1.29023C19.2568 1.32357 19.1751 1.34023 19.0884 1.34023C19.0018 1.34023 18.9201 1.32357 18.8434 1.29023C18.7701 1.2569 18.7051 1.2119 18.6484 1.15523C18.5918 1.09523 18.5468 1.02857 18.5134 0.955234C18.4801 0.878567 18.4634 0.796901 18.4634 0.710234C18.4634 0.623567 18.4801 0.5419 18.5134 0.465234C18.5468 0.385234 18.5918 0.316901 18.6484 0.260234C18.7051 0.200234 18.7701 0.153567 18.8434 0.120234C18.9201 0.0869005 19.0018 0.0702338 19.0884 0.0702338C19.1751 0.0702338 19.2568 0.0869005 19.3334 0.120234C19.4134 0.153567 19.4818 0.200234 19.5384 0.260234C19.5984 0.316901 19.6451 0.385234 19.6784 0.465234C19.7151 0.5419 19.7334 0.623567 19.7334 0.710234ZM23.0208 4.89023C23.2008 4.89023 23.3591 4.86523 23.4958 4.81523C23.6324 4.76523 23.7474 4.69523 23.8408 4.60523C23.9341 4.51523 24.0041 4.40857 24.0508 4.28523C24.0974 4.15857 24.1208 4.02023 24.1208 3.87023C24.1208 3.56023 24.0258 3.31357 23.8358 3.13023C23.6491 2.9469 23.3774 2.85523 23.0208 2.85523C22.6608 2.85523 22.3858 2.9469 22.1958 3.13023C22.0091 3.31357 21.9158 3.56023 21.9158 3.87023C21.9158 4.02023 21.9391 4.15857 21.9858 4.28523C22.0358 4.40857 22.1074 4.51523 22.2008 4.60523C22.2941 4.69523 22.4091 4.76523 22.5458 4.81523C22.6824 4.86523 22.8408 4.89023 23.0208 4.89023ZM24.6258 7.64023C24.6258 7.5169 24.5908 7.4169 24.5208 7.34023C24.4508 7.26357 24.3558 7.20357 24.2358 7.16023C24.1191 7.1169 23.9824 7.0869 23.8258 7.07023C23.6691 7.05023 23.5024 7.03523 23.3258 7.02523C23.1524 7.01523 22.9758 7.00523 22.7958 6.99523C22.6158 6.98523 22.4424 6.96857 22.2758 6.94523C22.0891 7.0319 21.9358 7.1419 21.8158 7.27523C21.6991 7.40523 21.6408 7.55857 21.6408 7.73523C21.6408 7.84857 21.6691 7.95357 21.7258 8.05023C21.7858 8.15023 21.8758 8.23523 21.9958 8.30523C22.1158 8.37857 22.2658 8.43523 22.4458 8.47523C22.6291 8.51857 22.8441 8.54023 23.0908 8.54023C23.3308 8.54023 23.5458 8.51857 23.7358 8.47523C23.9258 8.4319 24.0858 8.37023 24.2158 8.29023C24.3491 8.21023 24.4508 8.11523 24.5208 8.00523C24.5908 7.89523 24.6258 7.77357 24.6258 7.64023ZM25.5308 2.50023V2.83023C25.5308 2.94023 25.4608 3.01023 25.3208 3.04023L24.7458 3.11523C24.8591 3.33523 24.9158 3.57857 24.9158 3.84523C24.9158 4.0919 24.8674 4.3169 24.7708 4.52023C24.6774 4.72023 24.5474 4.8919 24.3808 5.03523C24.2141 5.17857 24.0141 5.28857 23.7808 5.36523C23.5474 5.4419 23.2941 5.48023 23.0208 5.48023C22.7841 5.48023 22.5608 5.4519 22.3508 5.39523C22.2441 5.4619 22.1624 5.53357 22.1058 5.61023C22.0491 5.68357 22.0208 5.75857 22.0208 5.83523C22.0208 5.95523 22.0691 6.0469 22.1658 6.11023C22.2658 6.17023 22.3958 6.21357 22.5558 6.24023C22.7158 6.2669 22.8974 6.28357 23.1008 6.29023C23.3074 6.2969 23.5174 6.30857 23.7308 6.32523C23.9474 6.33857 24.1574 6.36357 24.3608 6.40023C24.5674 6.4369 24.7508 6.4969 24.9108 6.58023C25.0708 6.66357 25.1991 6.77857 25.2958 6.92523C25.3958 7.0719 25.4458 7.2619 25.4458 7.49523C25.4458 7.7119 25.3908 7.9219 25.2808 8.12523C25.1741 8.32857 25.0191 8.50857 24.8158 8.66523C24.6124 8.82523 24.3624 8.9519 24.0658 9.04523C23.7724 9.1419 23.4408 9.19023 23.0708 9.19023C22.7008 9.19023 22.3774 9.15357 22.1008 9.08023C21.8241 9.0069 21.5941 8.90857 21.4108 8.78523C21.2274 8.6619 21.0891 8.51857 20.9958 8.35523C20.9058 8.19523 20.8608 8.0269 20.8608 7.85023C20.8608 7.60023 20.9391 7.38857 21.0958 7.21523C21.2524 7.0419 21.4674 6.90357 21.7408 6.80023C21.5908 6.73357 21.4708 6.64523 21.3808 6.53523C21.2941 6.4219 21.2508 6.27023 21.2508 6.08023C21.2508 6.0069 21.2641 5.9319 21.2908 5.85523C21.3174 5.77523 21.3574 5.6969 21.4108 5.62023C21.4674 5.54023 21.5358 5.46523 21.6158 5.39523C21.6958 5.32523 21.7891 5.26357 21.8958 5.21023C21.6458 5.07023 21.4508 4.88523 21.3108 4.65523C21.1708 4.4219 21.1008 4.1519 21.1008 3.84523C21.1008 3.59857 21.1474 3.37523 21.2408 3.17523C21.3374 2.9719 21.4708 2.80023 21.6408 2.66023C21.8108 2.5169 22.0124 2.4069 22.2458 2.33023C22.4824 2.25357 22.7408 2.21523 23.0208 2.21523C23.2408 2.21523 23.4458 2.24023 23.6358 2.29023C23.8258 2.3369 23.9991 2.4069 24.1558 2.50023H25.5308ZM27.5411 3.03523C27.6511 2.9119 27.7678 2.80023 27.8911 2.70023C28.0144 2.60023 28.1444 2.51523 28.2811 2.44523C28.4211 2.3719 28.5678 2.3169 28.7211 2.28023C28.8778 2.24023 29.0461 2.22023 29.2261 2.22023C29.5028 2.22023 29.7461 2.2669 29.9561 2.36023C30.1694 2.45023 30.3461 2.58023 30.4861 2.75023C30.6294 2.9169 30.7378 3.11857 30.8111 3.35523C30.8844 3.5919 30.9211 3.85357 30.9211 4.14023V7.36523L30.0261 7.36523V4.14023C30.0261 3.7569 29.9378 3.46023 29.7611 3.25023C29.5878 3.0369 29.3228 2.93023 28.9661 2.93023C28.7028 2.93023 28.4561 2.99357 28.2261 3.12023C27.9994 3.2469 27.7894 3.41857 27.5961 3.63523V7.36523H26.7011V2.30023H27.2361C27.3628 2.30023 27.4411 2.3619 27.4711 2.48523L27.5411 3.03523ZM35.9173 4.28023C35.9173 4.07357 35.8873 3.88523 35.8273 3.71523C35.7706 3.5419 35.6856 3.39357 35.5723 3.27023C35.4623 3.14357 35.3273 3.0469 35.1673 2.98023C35.0073 2.91023 34.8256 2.87523 34.6223 2.87523C34.1956 2.87523 33.8573 3.00023 33.6073 3.25023C33.3606 3.4969 33.2073 3.84023 33.1473 4.28023H35.9173ZM36.6373 6.65523C36.5273 6.78857 36.3956 6.90523 36.2423 7.00523C36.0889 7.1019 35.9239 7.1819 35.7473 7.24523C35.5739 7.30857 35.3939 7.35523 35.2073 7.38523C35.0206 7.41857 34.8356 7.43523 34.6523 7.43523C34.3023 7.43523 33.9789 7.3769 33.6823 7.26023C33.3889 7.14023 33.1339 6.9669 32.9173 6.74023C32.7039 6.51023 32.5373 6.2269 32.4173 5.89023C32.2973 5.55357 32.2373 5.1669 32.2373 4.73023C32.2373 4.3769 32.2906 4.0469 32.3973 3.74023C32.5073 3.43357 32.6639 3.16857 32.8673 2.94523C33.0706 2.71857 33.3189 2.5419 33.6123 2.41523C33.9056 2.28523 34.2356 2.22023 34.6023 2.22023C34.9056 2.22023 35.1856 2.2719 35.4423 2.37523C35.7023 2.47523 35.9256 2.6219 36.1123 2.81523C36.3023 3.00523 36.4506 3.2419 36.5573 3.52523C36.6639 3.80523 36.7173 4.12523 36.7173 4.48523C36.7173 4.62523 36.7023 4.71857 36.6723 4.76523C36.6423 4.8119 36.5856 4.83523 36.5023 4.83523L33.1173 4.83523C33.1273 5.15523 33.1706 5.43357 33.2473 5.67023C33.3273 5.9069 33.4373 6.10523 33.5773 6.26523C33.7173 6.4219 33.8839 6.54023 34.0773 6.62023C34.2706 6.6969 34.4873 6.73523 34.7273 6.73523C34.9506 6.73523 35.1423 6.71023 35.3023 6.66023C35.4656 6.6069 35.6056 6.55023 35.7223 6.49023C35.8389 6.43023 35.9356 6.37523 36.0123 6.32523C36.0923 6.2719 36.1606 6.24523 36.2173 6.24523C36.2906 6.24523 36.3473 6.27357 36.3873 6.33023L36.6373 6.65523ZM41.3605 3.50523C41.1938 3.2819 41.0138 3.1269 40.8205 3.04023C40.6271 2.95023 40.4105 2.90523 40.1705 2.90523C39.7005 2.90523 39.3388 3.07357 39.0855 3.41023C38.8321 3.7469 38.7055 4.2269 38.7055 4.85023C38.7055 5.18023 38.7338 5.46357 38.7905 5.70023C38.8471 5.93357 38.9305 6.1269 39.0405 6.28023C39.1505 6.43023 39.2855 6.54023 39.4455 6.61023C39.6055 6.68023 39.7871 6.71523 39.9905 6.71523C40.2838 6.71523 40.5388 6.64857 40.7555 6.51523C40.9755 6.3819 41.1771 6.19357 41.3605 5.95023V3.50523ZM42.2505 0.000234127V7.36523H41.7205C41.5938 7.36523 41.5138 7.30357 41.4805 7.18023L41.4005 6.56523C41.1838 6.82523 40.9371 7.03523 40.6605 7.19523C40.3838 7.35523 40.0638 7.43523 39.7005 7.43523C39.4105 7.43523 39.1471 7.38023 38.9105 7.27023C38.6738 7.1569 38.4721 6.9919 38.3055 6.77523C38.1388 6.55857 38.0105 6.28857 37.9205 5.96523C37.8305 5.6419 37.7855 5.27023 37.7855 4.85023C37.7855 4.4769 37.8355 4.13023 37.9355 3.81023C38.0355 3.4869 38.1788 3.2069 38.3655 2.97023C38.5521 2.73357 38.7805 2.54857 39.0505 2.41523C39.3238 2.27857 39.6305 2.21023 39.9705 2.21023C40.2805 2.21023 40.5455 2.26357 40.7655 2.37023C40.9888 2.47357 41.1871 2.61857 41.3605 2.80523V0.000234127L42.2505 0.000234127ZM48.4248 3.83523C48.0714 4.0219 47.8048 4.24857 47.6248 4.51523C47.4481 4.7819 47.3598 5.0719 47.3598 5.38523C47.3598 5.6019 47.3998 5.79357 47.4798 5.96023C47.5598 6.12357 47.6648 6.2619 47.7948 6.37523C47.9248 6.48857 48.0731 6.57523 48.2398 6.63523C48.4064 6.6919 48.5764 6.72023 48.7498 6.72023C49.1231 6.72023 49.4581 6.6519 49.7548 6.51523C50.0548 6.37857 50.3164 6.19523 50.5398 5.96523L48.4248 3.83523ZM53.0448 7.36523L52.1798 7.36523C52.0831 7.36523 52.0048 7.35357 51.9448 7.33023C51.8848 7.3069 51.8198 7.25857 51.7498 7.18523L51.0248 6.45523C50.7114 6.75857 50.3498 7.00023 49.9398 7.18023C49.5331 7.3569 49.0848 7.44523 48.5948 7.44523C48.3281 7.44523 48.0664 7.40023 47.8098 7.31023C47.5564 7.22023 47.3281 7.09023 47.1248 6.92023C46.9214 6.7469 46.7581 6.5369 46.6348 6.29023C46.5114 6.04357 46.4498 5.76523 46.4498 5.45523C46.4498 5.2219 46.4881 5.0019 46.5648 4.79523C46.6448 4.58523 46.7548 4.3919 46.8948 4.21523C47.0348 4.03857 47.1998 3.88023 47.3898 3.74023C47.5798 3.60023 47.7881 3.48023 48.0148 3.38023C47.8114 3.12023 47.6614 2.87023 47.5648 2.63023C47.4681 2.3869 47.4198 2.13523 47.4198 1.87523C47.4198 1.6319 47.4631 1.40357 47.5498 1.19023C47.6398 0.976901 47.7681 0.791901 47.9348 0.635234C48.1014 0.475234 48.3031 0.350234 48.5398 0.260234C48.7798 0.1669 49.0481 0.120234 49.3448 0.120234C49.6081 0.120234 49.8481 0.163567 50.0648 0.250234C50.2814 0.333567 50.4681 0.445234 50.6248 0.585234C50.7814 0.725234 50.9048 0.888568 50.9948 1.07523C51.0881 1.25857 51.1414 1.45023 51.1548 1.65023L50.5998 1.76023C50.4898 1.7869 50.4081 1.73523 50.3548 1.60523C50.3314 1.51857 50.2931 1.42857 50.2398 1.33523C50.1898 1.2419 50.1231 1.1569 50.0398 1.08023C49.9598 1.00357 49.8614 0.940234 49.7448 0.890234C49.6314 0.840234 49.4981 0.815234 49.3448 0.815234C49.1781 0.815234 49.0264 0.841901 48.8898 0.895234C48.7564 0.948567 48.6414 1.02357 48.5448 1.12023C48.4514 1.21357 48.3798 1.32523 48.3298 1.45523C48.2798 1.5819 48.2548 1.72023 48.2548 1.87023C48.2548 1.9869 48.2681 2.09857 48.2948 2.20523C48.3214 2.3119 48.3631 2.42023 48.4198 2.53023C48.4798 2.64023 48.5548 2.7519 48.6448 2.86523C48.7348 2.97857 48.8431 3.09857 48.9698 3.22523L51.0298 5.32023C51.1564 5.09357 51.2581 4.85857 51.3348 4.61523C51.4114 4.36857 51.4614 4.12357 51.4848 3.88023C51.4914 3.8169 51.5114 3.7669 51.5448 3.73023C51.5781 3.69357 51.6248 3.67523 51.6848 3.67523H52.2298C52.2264 4.05857 52.1664 4.43523 52.0498 4.80523C51.9331 5.1719 51.7648 5.5169 51.5448 5.84023L53.0448 7.36523ZM63.3125 3.78523C63.3125 4.3219 63.2275 4.81023 63.0575 5.25023C62.8875 5.69023 62.6475 6.0669 62.3375 6.38023C62.0275 6.69357 61.6542 6.9369 61.2175 7.11023C60.7842 7.28023 60.3042 7.36523 59.7775 7.36523L57.1025 7.36523V0.200234L59.7775 0.200234C60.3042 0.200234 60.7842 0.286901 61.2175 0.460234C61.6542 0.630234 62.0275 0.873568 62.3375 1.19023C62.6475 1.50357 62.8875 1.88023 63.0575 2.32023C63.2275 2.76023 63.3125 3.24857 63.3125 3.78523ZM62.3175 3.78523C62.3175 3.34523 62.2575 2.9519 62.1375 2.60523C62.0175 2.25857 61.8475 1.96523 61.6275 1.72523C61.4075 1.48523 61.1408 1.3019 60.8275 1.17523C60.5142 1.04857 60.1642 0.985234 59.7775 0.985234L58.0725 0.985234V6.58023H59.7775C60.1642 6.58023 60.5142 6.5169 60.8275 6.39023C61.1408 6.26357 61.4075 6.0819 61.6275 5.84523C61.8475 5.60523 62.0175 5.3119 62.1375 4.96523C62.2575 4.61857 62.3175 4.22523 62.3175 3.78523ZM68.0716 4.28023C68.0716 4.07357 68.0416 3.88523 67.9816 3.71523C67.9249 3.5419 67.8399 3.39357 67.7266 3.27023C67.6166 3.14357 67.4816 3.0469 67.3216 2.98023C67.1616 2.91023 66.9799 2.87523 66.7766 2.87523C66.3499 2.87523 66.0116 3.00023 65.7616 3.25023C65.5149 3.4969 65.3616 3.84023 65.3016 4.28023H68.0716ZM68.7916 6.65523C68.6816 6.78857 68.5499 6.90523 68.3966 7.00523C68.2432 7.1019 68.0782 7.1819 67.9016 7.24523C67.7282 7.30857 67.5482 7.35523 67.3616 7.38523C67.1749 7.41857 66.9899 7.43523 66.8066 7.43523C66.4566 7.43523 66.1332 7.3769 65.8366 7.26023C65.5432 7.14023 65.2882 6.9669 65.0716 6.74023C64.8582 6.51023 64.6916 6.2269 64.5716 5.89023C64.4516 5.55357 64.3916 5.1669 64.3916 4.73023C64.3916 4.3769 64.4449 4.0469 64.5516 3.74023C64.6616 3.43357 64.8182 3.16857 65.0216 2.94523C65.2249 2.71857 65.4732 2.5419 65.7666 2.41523C66.0599 2.28523 66.3899 2.22023 66.7566 2.22023C67.0599 2.22023 67.3399 2.2719 67.5966 2.37523C67.8566 2.47523 68.0799 2.6219 68.2666 2.81523C68.4566 3.00523 68.6049 3.2419 68.7116 3.52523C68.8182 3.80523 68.8716 4.12523 68.8716 4.48523C68.8716 4.62523 68.8566 4.71857 68.8266 4.76523C68.7966 4.8119 68.7399 4.83523 68.6566 4.83523H65.2716C65.2816 5.15523 65.3249 5.43357 65.4016 5.67023C65.4816 5.9069 65.5916 6.10523 65.7316 6.26523C65.8716 6.4219 66.0382 6.54023 66.2316 6.62023C66.4249 6.6969 66.6416 6.73523 66.8816 6.73523C67.1049 6.73523 67.2966 6.71023 67.4566 6.66023C67.6199 6.6069 67.7599 6.55023 67.8766 6.49023C67.9932 6.43023 68.0899 6.37523 68.1666 6.32523C68.2466 6.2719 68.3149 6.24523 68.3716 6.24523C68.4449 6.24523 68.5016 6.27357 68.5416 6.33023L68.7916 6.65523ZM74.4473 2.30023L72.3823 7.36523H71.5823L69.5173 2.30023L70.2423 2.30023C70.3157 2.30023 70.3757 2.31857 70.4223 2.35523C70.469 2.3919 70.5007 2.43523 70.5173 2.48523L71.8023 5.74523C71.8423 5.86857 71.8773 5.98857 71.9073 6.10523C71.9373 6.2219 71.9657 6.33857 71.9923 6.45523C72.019 6.33857 72.0473 6.2219 72.0773 6.10523C72.1073 5.98857 72.144 5.86857 72.1873 5.74523L73.4873 2.48523C73.5073 2.4319 73.5407 2.38857 73.5873 2.35523C73.634 2.31857 73.689 2.30023 73.7523 2.30023L74.4473 2.30023ZM78.7669 4.28023C78.7669 4.07357 78.7369 3.88523 78.6769 3.71523C78.6202 3.5419 78.5352 3.39357 78.4219 3.27023C78.3119 3.14357 78.1769 3.0469 78.0169 2.98023C77.8569 2.91023 77.6752 2.87523 77.4719 2.87523C77.0452 2.87523 76.7069 3.00023 76.4569 3.25023C76.2102 3.4969 76.0569 3.84023 75.9969 4.28023H78.7669ZM79.4869 6.65523C79.3769 6.78857 79.2452 6.90523 79.0919 7.00523C78.9385 7.1019 78.7735 7.1819 78.5969 7.24523C78.4235 7.30857 78.2435 7.35523 78.0569 7.38523C77.8702 7.41857 77.6852 7.43523 77.5019 7.43523C77.1519 7.43523 76.8285 7.3769 76.5319 7.26023C76.2385 7.14023 75.9835 6.9669 75.7669 6.74023C75.5535 6.51023 75.3869 6.2269 75.2669 5.89023C75.1469 5.55357 75.0869 5.1669 75.0869 4.73023C75.0869 4.3769 75.1402 4.0469 75.2469 3.74023C75.3569 3.43357 75.5135 3.16857 75.7169 2.94523C75.9202 2.71857 76.1685 2.5419 76.4619 2.41523C76.7552 2.28523 77.0852 2.22023 77.4519 2.22023C77.7552 2.22023 78.0352 2.2719 78.2919 2.37523C78.5519 2.47523 78.7752 2.6219 78.9619 2.81523C79.1519 3.00523 79.3002 3.2419 79.4069 3.52523C79.5135 3.80523 79.5669 4.12523 79.5669 4.48523C79.5669 4.62523 79.5519 4.71857 79.5219 4.76523C79.4919 4.8119 79.4352 4.83523 79.3519 4.83523H75.9669C75.9769 5.15523 76.0202 5.43357 76.0969 5.67023C76.1769 5.9069 76.2869 6.10523 76.4269 6.26523C76.5669 6.4219 76.7335 6.54023 76.9269 6.62023C77.1202 6.6969 77.3369 6.73523 77.5769 6.73523C77.8002 6.73523 77.9919 6.71023 78.1519 6.66023C78.3152 6.6069 78.4552 6.55023 78.5719 6.49023C78.6885 6.43023 78.7852 6.37523 78.8619 6.32523C78.9419 6.2719 79.0102 6.24523 79.0669 6.24523C79.1402 6.24523 79.1969 6.27357 79.2369 6.33023L79.4869 6.65523ZM81.8301 0.000234127V7.36523H80.9401V0.000234127L81.8301 0.000234127ZM85.6584 2.22023C86.0284 2.22023 86.3617 2.2819 86.6584 2.40523C86.955 2.52857 87.2084 2.70357 87.4184 2.93023C87.6284 3.1569 87.7884 3.4319 87.8984 3.75523C88.0117 4.07523 88.0684 4.43357 88.0684 4.83023C88.0684 5.23023 88.0117 5.59023 87.8984 5.91023C87.7884 6.23023 87.6284 6.50357 87.4184 6.73023C87.2084 6.9569 86.955 7.1319 86.6584 7.25523C86.3617 7.37523 86.0284 7.43523 85.6584 7.43523C85.285 7.43523 84.9484 7.37523 84.6484 7.25523C84.3517 7.1319 84.0984 6.9569 83.8884 6.73023C83.6784 6.50357 83.5167 6.23023 83.4034 5.91023C83.2934 5.59023 83.2384 5.23023 83.2384 4.83023C83.2384 4.43357 83.2934 4.07523 83.4034 3.75523C83.5167 3.4319 83.6784 3.1569 83.8884 2.93023C84.0984 2.70357 84.3517 2.52857 84.6484 2.40523C84.9484 2.2819 85.285 2.22023 85.6584 2.22023ZM85.6584 6.74023C86.1584 6.74023 86.5317 6.57357 86.7784 6.24023C87.025 5.90357 87.1484 5.43523 87.1484 4.83523C87.1484 4.2319 87.025 3.7619 86.7784 3.42523C86.5317 3.08857 86.1584 2.92023 85.6584 2.92023C85.405 2.92023 85.1834 2.96357 84.9934 3.05023C84.8067 3.1369 84.65 3.2619 84.5234 3.42523C84.4 3.58857 84.3067 3.79023 84.2434 4.03023C84.1834 4.2669 84.1534 4.53523 84.1534 4.83523C84.1534 5.43523 84.2767 5.90357 84.5234 6.24023C84.7734 6.57357 85.1517 6.74023 85.6584 6.74023ZM90.3422 6.14523C90.5055 6.36523 90.6839 6.52023 90.8772 6.61023C91.0705 6.70023 91.2872 6.74523 91.5272 6.74523C92.0005 6.74523 92.3639 6.5769 92.6172 6.24023C92.8705 5.90357 92.9972 5.42357 92.9972 4.80023C92.9972 4.47023 92.9672 4.1869 92.9072 3.95023C92.8505 3.71357 92.7672 3.52023 92.6572 3.37023C92.5472 3.2169 92.4122 3.10523 92.2522 3.03523C92.0922 2.96523 91.9105 2.93023 91.7072 2.93023C91.4172 2.93023 91.1622 2.9969 90.9422 3.13023C90.7255 3.26357 90.5255 3.4519 90.3422 3.69523V6.14523ZM90.2972 3.08523C90.5105 2.8219 90.7572 2.61023 91.0372 2.45023C91.3172 2.29023 91.6372 2.21023 91.9972 2.21023C92.2905 2.21023 92.5555 2.2669 92.7922 2.38023C93.0289 2.49023 93.2305 2.65523 93.3972 2.87523C93.5639 3.0919 93.6922 3.3619 93.7822 3.68523C93.8722 4.00857 93.9172 4.38023 93.9172 4.80023C93.9172 5.17357 93.8672 5.5219 93.7672 5.84523C93.6672 6.16523 93.5222 6.44357 93.3322 6.68023C93.1455 6.91357 92.9155 7.09857 92.6422 7.23523C92.3722 7.36857 92.0672 7.43523 91.7272 7.43523C91.4172 7.43523 91.1505 7.38357 90.9272 7.28023C90.7072 7.17357 90.5122 7.0269 90.3422 6.84023V9.08023H89.4472V2.30023H89.9822C90.1089 2.30023 90.1872 2.3619 90.2172 2.48523L90.2972 3.08523ZM98.6927 4.28023C98.6927 4.07357 98.6627 3.88523 98.6027 3.71523C98.546 3.5419 98.461 3.39357 98.3477 3.27023C98.2377 3.14357 98.1027 3.0469 97.9427 2.98023C97.7827 2.91023 97.601 2.87523 97.3977 2.87523C96.971 2.87523 96.6327 3.00023 96.3827 3.25023C96.136 3.4969 95.9827 3.84023 95.9227 4.28023H98.6927ZM99.4127 6.65523C99.3027 6.78857 99.171 6.90523 99.0177 7.00523C98.8643 7.1019 98.6993 7.1819 98.5227 7.24523C98.3493 7.30857 98.1693 7.35523 97.9827 7.38523C97.796 7.41857 97.611 7.43523 97.4277 7.43523C97.0777 7.43523 96.7543 7.3769 96.4577 7.26023C96.1643 7.14023 95.9093 6.9669 95.6927 6.74023C95.4793 6.51023 95.3127 6.2269 95.1927 5.89023C95.0727 5.55357 95.0127 5.1669 95.0127 4.73023C95.0127 4.3769 95.066 4.0469 95.1727 3.74023C95.2827 3.43357 95.4393 3.16857 95.6427 2.94523C95.846 2.71857 96.0943 2.5419 96.3877 2.41523C96.681 2.28523 97.011 2.22023 97.3777 2.22023C97.681 2.22023 97.961 2.2719 98.2177 2.37523C98.4777 2.47523 98.701 2.6219 98.8877 2.81523C99.0777 3.00523 99.226 3.2419 99.3327 3.52523C99.4393 3.80523 99.4927 4.12523 99.4927 4.48523C99.4927 4.62523 99.4777 4.71857 99.4477 4.76523C99.4177 4.8119 99.361 4.83523 99.2777 4.83523L95.8927 4.83523C95.9027 5.15523 95.946 5.43357 96.0227 5.67023C96.1027 5.9069 96.2127 6.10523 96.3527 6.26523C96.4927 6.4219 96.6593 6.54023 96.8527 6.62023C97.046 6.6969 97.2627 6.73523 97.5027 6.73523C97.726 6.73523 97.9177 6.71023 98.0777 6.66023C98.241 6.6069 98.381 6.55023 98.4977 6.49023C98.6143 6.43023 98.711 6.37523 98.7877 6.32523C98.8677 6.2719 98.936 6.24523 98.9927 6.24523C99.066 6.24523 99.1227 6.27357 99.1627 6.33023L99.4127 6.65523ZM104.136 3.50523C103.969 3.2819 103.789 3.1269 103.596 3.04023C103.403 2.95023 103.186 2.90523 102.946 2.90523C102.476 2.90523 102.114 3.07357 101.861 3.41023C101.608 3.7469 101.481 4.2269 101.481 4.85023C101.481 5.18023 101.509 5.46357 101.566 5.70023C101.623 5.93357 101.706 6.1269 101.816 6.28023C101.926 6.43023 102.061 6.54023 102.221 6.61023C102.381 6.68023 102.563 6.71523 102.766 6.71523C103.059 6.71523 103.314 6.64857 103.531 6.51523C103.751 6.3819 103.953 6.19357 104.136 5.95023V3.50523ZM105.026 0.000234127V7.36523H104.496C104.369 7.36523 104.289 7.30357 104.256 7.18023L104.176 6.56523C103.959 6.82523 103.713 7.03523 103.436 7.19523C103.159 7.35523 102.839 7.43523 102.476 7.43523C102.186 7.43523 101.923 7.38023 101.686 7.27023C101.449 7.1569 101.248 6.9919 101.081 6.77523C100.914 6.55857 100.786 6.28857 100.696 5.96523C100.606 5.6419 100.561 5.27023 100.561 4.85023C100.561 4.4769 100.611 4.13023 100.711 3.81023C100.811 3.4869 100.954 3.2069 101.141 2.97023C101.328 2.73357 101.556 2.54857 101.826 2.41523C102.099 2.27857 102.406 2.21023 102.746 2.21023C103.056 2.21023 103.321 2.26357 103.541 2.37023C103.764 2.47357 103.963 2.61857 104.136 2.80523V0.000234127L105.026 0.000234127ZM110.385 6.14523C110.548 6.36523 110.727 6.52023 110.92 6.61023C111.117 6.70023 111.332 6.74523 111.565 6.74523C112.042 6.74523 112.407 6.5769 112.66 6.24023C112.913 5.90357 113.04 5.4019 113.04 4.73523C113.04 4.11523 112.927 3.66023 112.7 3.37023C112.477 3.0769 112.157 2.93023 111.74 2.93023C111.45 2.93023 111.197 2.9969 110.98 3.13023C110.767 3.26357 110.568 3.4519 110.385 3.69523V6.14523ZM110.385 3.03023C110.598 2.78357 110.838 2.5869 111.105 2.44023C111.375 2.29357 111.685 2.22023 112.035 2.22023C112.332 2.22023 112.598 2.2769 112.835 2.39023C113.075 2.50357 113.278 2.66857 113.445 2.88523C113.612 3.09857 113.738 3.35857 113.825 3.66523C113.915 3.9719 113.96 4.3169 113.96 4.70023C113.96 5.11023 113.91 5.48357 113.81 5.82023C113.71 6.1569 113.565 6.44523 113.375 6.68523C113.188 6.9219 112.96 7.1069 112.69 7.24023C112.42 7.37023 112.117 7.43523 111.78 7.43523C111.447 7.43523 111.165 7.37357 110.935 7.25023C110.708 7.12357 110.51 6.94523 110.34 6.71523L110.295 7.17523C110.268 7.3019 110.192 7.36523 110.065 7.36523H109.49V0.000234127L110.385 0.000234127V3.03023ZM119.579 2.30023L116.754 8.86023C116.724 8.9269 116.686 8.98023 116.639 9.02023C116.596 9.06023 116.527 9.08023 116.434 9.08023L115.774 9.08023L116.699 7.07023L114.609 2.30023H115.379C115.456 2.30023 115.516 2.32023 115.559 2.36023C115.606 2.3969 115.637 2.43857 115.654 2.48523L117.009 5.67523C117.062 5.81523 117.107 5.9619 117.144 6.11523C117.191 5.95857 117.241 5.81023 117.294 5.67023L118.609 2.48523C118.629 2.4319 118.662 2.38857 118.709 2.35523C118.759 2.31857 118.814 2.30023 118.874 2.30023L119.579 2.30023Z" fill="black"/>
<g clip-path="url(#clip0_406_1805)">
<path d="M80.8702 36.3604L81.1954 33.8804H81.4935L81.2022 36.0859H82.0949L82.0593 36.3604H80.8702ZM82.5895 34.0769C82.5895 34.0273 82.6076 33.9843 82.6437 33.9482C82.681 33.9121 82.725 33.894 82.7758 33.894C82.8278 33.894 82.8713 33.9121 82.9063 33.9482C82.9424 33.9832 82.9605 34.0261 82.9605 34.0769C82.9605 34.13 82.9424 34.1746 82.9063 34.2108C82.8713 34.2469 82.8278 34.265 82.7758 34.265C82.725 34.265 82.681 34.2469 82.6437 34.2108C82.6076 34.1735 82.5895 34.1289 82.5895 34.0769ZM82.3676 36.3604L82.5726 34.8104H82.8419L82.6369 36.3604H82.3676ZM84.1547 36.3604L84.28 35.4084C84.2834 35.3847 84.2857 35.3609 84.2868 35.3372C84.2891 35.3135 84.2902 35.2904 84.2902 35.2678C84.2902 35.174 84.2659 35.1035 84.2174 35.056C84.1699 35.0075 84.0993 34.9832 84.0056 34.9832C83.8837 34.9832 83.786 35.0329 83.7126 35.1323C83.6403 35.2305 83.5912 35.3784 83.5652 35.5761L83.4602 36.3604H83.1942L83.4009 34.8104H83.6584L83.6228 35.0493C83.6962 34.9499 83.7764 34.8759 83.8633 34.8273C83.9503 34.7788 84.0451 34.7545 84.1479 34.7545C84.2518 34.7545 84.3399 34.7805 84.4122 34.8324C84.4844 34.8832 84.5324 34.9544 84.5561 35.0459C84.6341 34.9487 84.7188 34.8759 84.8102 34.8273C84.9028 34.7788 85.0011 34.7545 85.105 34.7545C85.2371 34.7545 85.3416 34.7952 85.4184 34.8765C85.4963 34.9578 85.5352 35.0685 85.5352 35.2085C85.5352 35.2412 85.5313 35.2932 85.5234 35.3643C85.5222 35.3722 85.5217 35.3779 85.5217 35.3813L85.3929 36.3604H85.1219L85.2473 35.4101C85.2507 35.3863 85.2529 35.3626 85.254 35.3389C85.2563 35.3152 85.2574 35.2915 85.2574 35.2678C85.2574 35.174 85.2331 35.1035 85.1846 35.056C85.1372 35.0075 85.0666 34.9832 84.9728 34.9832C84.8475 34.9832 84.7493 35.0306 84.6781 35.1255C84.6081 35.2203 84.5595 35.3705 84.5324 35.5761L84.4291 36.3604H84.1547ZM86.1535 34.0769C86.1535 34.0273 86.1716 33.9843 86.2077 33.9482C86.245 33.9121 86.289 33.894 86.3398 33.894C86.3918 33.894 86.4353 33.9121 86.4703 33.9482C86.5064 33.9832 86.5245 34.0261 86.5245 34.0769C86.5245 34.13 86.5064 34.1746 86.4703 34.2108C86.4353 34.2469 86.3918 34.265 86.3398 34.265C86.289 34.265 86.245 34.2469 86.2077 34.2108C86.1716 34.1735 86.1535 34.1289 86.1535 34.0769ZM85.9316 36.3604L86.1366 34.8104H86.4059L86.2009 36.3604H85.9316ZM86.8226 36.3604L86.9971 35.0357H86.7091L86.7396 34.8104H87.0276L87.1072 34.1854H87.3816L87.2986 34.8104H87.6391L87.6103 35.0357H87.2681L87.0936 36.3604H86.8226ZM89.2246 35.6303L87.983 35.632V35.6591C87.983 35.8251 88.0253 35.9561 88.11 36.0521C88.1947 36.1469 88.3104 36.1943 88.4573 36.1943C88.5487 36.1943 88.6329 36.1723 88.7096 36.1283C88.7864 36.0842 88.861 36.0159 88.9332 35.9233L89.1196 36.0758C89.0292 36.1932 88.9299 36.2813 88.8214 36.34C88.713 36.3976 88.595 36.4264 88.4674 36.4264C88.2359 36.4264 88.0518 36.357 87.9152 36.2181C87.7797 36.078 87.7119 35.8894 87.7119 35.6523C87.7119 35.3937 87.791 35.1797 87.9491 35.0103C88.1072 34.8398 88.3054 34.7545 88.5436 34.7545C88.7605 34.7545 88.9287 34.8206 89.0484 34.9527C89.1681 35.0848 89.228 35.2706 89.228 35.51C89.228 35.5428 89.2274 35.5676 89.2263 35.5845C89.2263 35.6015 89.2257 35.6167 89.2246 35.6303ZM88.9671 35.4101C88.9649 35.27 88.9265 35.1622 88.8519 35.0865C88.7785 35.0109 88.6746 34.973 88.5403 34.973C88.407 34.973 88.2918 35.0126 88.1947 35.0916C88.0987 35.1707 88.036 35.2768 88.0067 35.4101H88.9671ZM90.2511 36.1757C90.4013 36.1757 90.5289 36.113 90.6339 35.9877C90.739 35.8623 90.7915 35.7065 90.7915 35.5202C90.7915 35.3632 90.7503 35.2362 90.6678 35.139C90.5865 35.0419 90.4798 34.9934 90.3477 34.9934C90.176 34.9934 90.036 35.0543 89.9276 35.1763C89.8192 35.2971 89.765 35.4524 89.765 35.6421C89.765 35.8014 89.8096 35.9301 89.8988 36.0283C89.9891 36.1266 90.1066 36.1757 90.2511 36.1757ZM91.032 33.7348H91.3014L90.9541 36.3604H90.6848L90.722 36.1283C90.6475 36.2288 90.5639 36.3033 90.4713 36.3519C90.3799 36.3993 90.2748 36.423 90.1563 36.423C89.9586 36.423 89.7977 36.3508 89.6735 36.2062C89.5493 36.0617 89.4872 35.8736 89.4872 35.6421C89.4872 35.3858 89.5628 35.174 89.7141 35.0069C89.8655 34.8386 90.0558 34.7545 90.285 34.7545C90.4228 34.7545 90.5385 34.785 90.6323 34.846C90.726 34.907 90.7988 34.999 90.8508 35.1221L91.032 33.7348Z" fill="black"/>
<path d="M68.4567 44.2404C62.8246 42.5381 57.1925 41.0549 51.4939 39.9812C51.1345 39.9147 50.7751 39.8339 50.4264 39.7783L49.3482 39.5987C48.6294 39.4838 47.9231 39.3527 47.2079 39.2396L45.0513 38.9469C44.6919 38.8984 44.3325 38.8392 43.9731 38.7997L42.8948 38.6847C42.176 38.6147 41.4572 38.5159 40.7383 38.4531L38.5818 38.2735L38.0427 38.2268L37.5035 38.1963L36.4253 38.1371C35.7065 38.0958 34.9876 38.0509 34.2688 38.0437C33.5499 38.0365 32.8311 37.9934 32.1123 37.9826H29.9558C29.2369 37.9826 28.5181 38.0096 27.7992 38.0204C27.0804 38.0311 26.3616 38.0724 25.6427 38.1047C22.7602 38.2376 19.8848 38.4938 17.0167 38.8733C14.1485 39.2527 11.2935 39.7537 8.45173 40.3762C5.59026 40.9942 2.76804 41.7815 0 42.7338C0.625389 42.3442 1.28133 42.0048 1.93547 41.6655C2.58961 41.3261 3.26532 41.0262 3.94103 40.7246C5.28885 40.1212 6.67441 39.6005 8.07434 39.1085C10.8789 38.1443 13.7436 37.3645 16.6501 36.7742C19.5622 36.1877 22.5069 35.7763 25.4684 35.5424C26.2088 35.4778 26.9492 35.4239 27.6914 35.397C28.4336 35.37 29.1758 35.3197 29.9198 35.309L32.1482 35.291C32.8922 35.291 33.6344 35.3233 34.3766 35.3395C35.1188 35.3557 35.861 35.4041 36.6032 35.4508L37.7156 35.5209L38.2709 35.5568L38.8262 35.6124L41.042 35.8423C41.7788 35.9213 42.5138 36.0362 43.2489 36.1385L44.3505 36.2984C44.7099 36.3522 45.0819 36.4258 45.4467 36.4887L47.623 36.8981C48.3418 37.0489 49.0714 37.2141 49.7939 37.3775L50.8721 37.6271C51.2315 37.7079 51.591 37.8067 51.9504 37.9072C57.6753 39.3851 63.2132 41.5098 68.4567 44.2404Z" fill="black"/>
<path d="M16.0697 17.6328H19.1948C19.3148 17.6328 19.4299 17.6802 19.515 17.7646C19.6002 17.849 19.6485 17.9637 19.6495 18.0835V31.6638C19.6495 31.7842 19.6016 31.8998 19.5163 31.985C19.431 32.0702 19.3154 32.1181 19.1948 32.1181H16.0697C16.0099 32.1181 15.9508 32.1063 15.8957 32.0835C15.8405 32.0606 15.7904 32.0272 15.7482 31.985C15.7059 31.9428 15.6724 31.8927 15.6496 31.8376C15.6268 31.7825 15.615 31.7234 15.615 31.6638V18.0835C15.6159 17.9637 15.6643 17.849 15.7494 17.7646C15.8346 17.6802 15.9497 17.6328 16.0697 17.6328ZM32.8329 32.1181H29.9846C29.864 32.1181 29.7483 32.0702 29.6631 31.985C29.5778 31.8998 29.5299 31.7842 29.5299 31.6638V31.5776C29.5302 31.4899 29.5051 31.404 29.4576 31.3302C29.4101 31.2565 29.3422 31.1981 29.2623 31.162C29.1823 31.1259 29.0935 31.1138 29.0068 31.127C28.92 31.1402 28.8389 31.1782 28.7733 31.2364C28.4909 31.501 28.1749 31.7274 27.8334 31.9098C27.1791 32.2243 26.4584 32.3765 25.7326 32.3533C24.6244 32.3533 23.7558 32.0223 23.1268 31.3603C22.4979 30.6983 22.1828 29.6808 22.1816 28.3078V22.0788C22.1816 22.0185 22.1936 21.9588 22.2169 21.9032C22.2402 21.8476 22.2743 21.7972 22.3173 21.755C22.3603 21.7127 22.4112 21.6794 22.4672 21.657C22.5232 21.6346 22.5831 21.6235 22.6434 21.6245H25.7794C25.8998 21.6249 26.0152 21.673 26.1003 21.758C26.1855 21.8431 26.2335 21.9584 26.234 22.0788V27.3956C26.234 28.0552 26.3538 28.5226 26.5934 28.798C26.7234 28.939 26.8829 29.0497 27.0606 29.122C27.2383 29.1943 27.4298 29.2265 27.6214 29.2163C27.8477 29.2215 28.0722 29.174 28.2771 29.0777C28.4819 28.9814 28.6617 28.839 28.8021 28.6615C29.1088 28.294 29.2621 27.632 29.2621 26.6755V22.0788C29.2626 21.9584 29.3106 21.8431 29.3958 21.758C29.481 21.673 29.5963 21.6249 29.7168 21.6245H32.8329C32.9535 21.6245 33.0692 21.6723 33.1544 21.7575C33.2397 21.8427 33.2876 21.9583 33.2876 22.0788V31.6638C33.2876 31.7842 33.2397 31.8998 33.1544 31.985C33.0692 32.0702 32.9535 32.1181 32.8329 32.1181ZM46.9347 27.8696H39.8614C39.7927 27.8694 39.7249 27.8848 39.663 27.9145C39.6011 27.9443 39.5467 27.9876 39.504 28.0414C39.4613 28.0951 39.4313 28.1578 39.4163 28.2248C39.4014 28.2918 39.4017 28.3613 39.4175 28.4281C39.4887 28.7522 39.6345 29.0553 39.8434 29.3133C40.0293 29.5346 40.2631 29.7108 40.527 29.8287C40.791 29.9466 41.0783 30.003 41.3673 29.9938C41.6896 30.0031 42.0096 29.9377 42.3023 29.8028C42.5951 29.6679 42.8526 29.4672 43.0548 29.2163C43.1016 29.1632 43.1604 29.1219 43.2264 29.096C43.2923 29.0701 43.3635 29.0602 43.434 29.0673L46.4172 29.342C46.4972 29.3491 46.5739 29.3772 46.6395 29.4235C46.7051 29.4698 46.7573 29.5326 46.7907 29.6056C46.8241 29.6785 46.8376 29.7591 46.8297 29.8389C46.8219 29.9188 46.793 29.9952 46.746 30.0603C46.2867 30.7298 45.6776 31.2831 44.9669 31.6763C44.1091 32.1336 42.8793 32.3623 41.2775 32.3623C39.8865 32.3623 38.7921 32.1665 37.9942 31.7751C37.1695 31.3552 36.4832 30.7069 36.0174 29.9076C35.4737 28.9969 35.1984 27.9512 35.2231 26.891C35.2231 25.2522 35.749 23.9253 36.8009 22.9101C37.8528 21.895 39.3037 21.3874 41.1535 21.3874C42.6583 21.3874 43.8449 21.6149 44.7135 22.0698C45.5656 22.5055 46.2604 23.196 46.7011 24.045C47.1576 24.9081 47.3852 26.0315 47.384 27.4153C47.384 27.5349 47.3369 27.6496 47.2528 27.7347C47.1686 27.8197 47.0544 27.8682 46.9347 27.8696ZM42.7709 25.9429C42.8388 25.9428 42.9059 25.9275 42.9672 25.8982C43.0285 25.8689 43.0825 25.8263 43.1252 25.7734C43.1679 25.7206 43.1983 25.6589 43.2141 25.5929C43.2299 25.5268 43.2307 25.4581 43.2166 25.3917C43.1487 24.9746 42.9614 24.5861 42.6774 24.273C42.4756 24.0928 42.239 23.9559 41.9821 23.8708C41.7252 23.7857 41.4536 23.7542 41.184 23.7783C40.9144 23.8023 40.6527 23.8815 40.415 24.0107C40.1773 24.14 39.9687 24.3167 39.8021 24.5298C39.6185 24.7851 39.4911 25.0764 39.4283 25.3845C39.4129 25.4513 39.4128 25.5206 39.4279 25.5875C39.443 25.6543 39.473 25.7168 39.5157 25.7705C39.5583 25.8241 39.6125 25.8675 39.6742 25.8974C39.7359 25.9272 39.8036 25.9428 39.8722 25.9429H42.7709Z" fill="black"/>
<path d="M49.5657 18.0832C49.5657 17.9627 49.6136 17.8472 49.6988 17.762C49.7841 17.6768 49.8998 17.6289 50.0203 17.6289H56.2203C57.5322 17.6289 58.5919 17.8085 59.3994 18.1676C60.1834 18.5053 60.8718 19.0315 61.4031 19.6993C61.9405 20.3865 62.3307 21.1768 62.5497 22.021C62.7923 22.9367 62.9131 23.8803 62.9091 24.8275C62.9091 26.3754 62.733 27.576 62.3807 28.4295C62.0549 29.2433 61.5536 29.9753 60.9125 30.5735C60.3441 31.1194 59.6497 31.5166 58.8908 31.7299C58.0216 31.9772 57.1239 32.11 56.2203 32.1249H50.0203C49.8998 32.1249 49.7841 32.0771 49.6988 31.9919C49.6136 31.9067 49.5657 31.7911 49.5657 31.6706V18.0832ZM54.0458 21.3638V28.3667C54.0458 28.4872 54.0937 28.6027 54.179 28.6879C54.2643 28.7731 54.3799 28.821 54.5005 28.821H55.1421C56.0789 28.821 56.7451 28.7174 57.1404 28.5103C57.567 28.2662 57.8954 27.8816 58.0695 27.4222C58.2948 26.9051 58.4068 26.0671 58.4056 24.9083C58.4056 23.3737 58.1552 22.3226 57.6544 21.7552C57.1536 21.1878 56.3257 20.9071 55.1708 20.9131H54.5095C54.449 20.9119 54.3889 20.9228 54.3327 20.9451C54.2765 20.9674 54.2253 21.0006 54.1822 21.0429C54.139 21.0852 54.1047 21.1357 54.0813 21.1914C54.0579 21.2471 54.0458 21.307 54.0458 21.3674V21.3638ZM75.611 32.1141H72.7554C72.6957 32.1141 72.6365 32.1024 72.5814 32.0796C72.5262 32.0567 72.4761 32.0233 72.4339 31.9811C72.3917 31.9389 72.3582 31.8888 72.3353 31.8337C72.3125 31.7786 72.3007 31.7195 72.3007 31.6599V31.5737C72.3015 31.486 72.2767 31.4 72.2295 31.3261C72.1822 31.2522 72.1145 31.1936 72.0345 31.1575C71.9546 31.1213 71.8658 31.1092 71.7791 31.1225C71.6923 31.1358 71.6113 31.174 71.5459 31.2325C71.2631 31.4984 70.9465 31.726 70.6042 31.9094C69.9499 32.224 69.2292 32.3762 68.5034 32.353C67.3964 32.353 66.5278 32.022 65.8977 31.36C65.2675 30.698 64.9524 29.6805 64.9524 28.3074V22.0784C64.9526 22.0182 64.9648 21.9587 64.9882 21.9032C65.0115 21.8477 65.0457 21.7974 65.0886 21.7552C65.1316 21.713 65.1824 21.6796 65.2383 21.6571C65.2942 21.6347 65.354 21.6234 65.4142 21.6242H68.5484C68.669 21.6242 68.7846 21.672 68.8699 21.7572C68.9551 21.8424 69.003 21.958 69.003 22.0784V27.3953C69.003 28.0549 69.1228 28.5223 69.3625 28.7976C69.4923 28.9393 69.652 29.0504 69.8301 29.1228C70.0082 29.1951 70.2002 29.227 70.3922 29.216C70.6188 29.2211 70.8435 29.1737 71.0487 29.0774C71.2539 28.9812 71.4339 28.8387 71.5747 28.6612C71.8802 28.2937 72.0329 27.6317 72.0329 26.6752V22.0784C72.0334 21.9578 72.0817 21.8422 72.1673 21.7571C72.2528 21.672 72.3686 21.6242 72.4894 21.6242H75.6038C75.7243 21.6242 75.84 21.672 75.9253 21.7572C76.0105 21.8424 76.0584 21.958 76.0584 22.0784V31.6634C76.0584 31.7839 76.0105 31.8995 75.9253 31.9847C75.84 32.0699 75.7243 32.1177 75.6038 32.1177L75.611 32.1141ZM86.6936 28.0435L89.6193 28.3775C89.6872 28.3847 89.7526 28.4072 89.8105 28.4433C89.8685 28.4794 89.9175 28.528 89.954 28.5857C89.9905 28.6434 90.0134 28.7086 90.0211 28.7764C90.0288 28.8442 90.0211 28.9128 89.9985 28.9772C89.7986 29.5338 89.5044 30.0519 89.1287 30.5089C88.6329 31.104 88.0003 31.5704 87.2849 31.8681C86.5373 32.189 85.5866 32.35 84.4329 32.3512C83.4952 32.3726 82.559 32.2681 81.6492 32.0405C80.9433 31.8533 80.289 31.5089 79.7353 31.0332C79.2089 30.5805 78.7808 30.0251 78.4773 29.401C78.1736 28.7743 78.0227 27.9465 78.0227 26.9122C78.0227 25.8349 78.2072 24.9371 78.5762 24.2188C78.8544 23.6823 79.2297 23.2019 79.6832 22.8021C80.1059 22.4121 80.5921 22.0969 81.1208 21.8702C81.9044 21.5469 82.9095 21.3853 84.1364 21.3853C85.8508 21.3853 87.1579 21.6918 88.0576 22.3047C88.8275 22.8366 89.4198 23.5873 89.7577 24.4594C89.7828 24.5233 89.7931 24.592 89.7878 24.6604C89.7825 24.7288 89.7618 24.7951 89.7273 24.8544C89.6927 24.9136 89.6451 24.9643 89.5881 25.0026C89.5312 25.0408 89.4662 25.0657 89.3983 25.0753L86.5337 25.4452C86.4336 25.4572 86.3324 25.4361 86.2454 25.3852C86.1585 25.3343 86.0906 25.2564 86.0521 25.1633C85.9375 24.8913 85.7512 24.6554 85.5129 24.481C85.1401 24.2376 84.6998 24.1181 84.255 24.1398C83.9486 24.1301 83.6441 24.1896 83.364 24.314C83.0839 24.4383 82.8356 24.6243 82.6376 24.8581C82.2255 25.3369 82.0194 26.0587 82.0194 27.0236C82.0194 27.8843 82.2243 28.5385 82.634 28.9862C82.83 29.2045 83.0712 29.3775 83.3409 29.4932C83.6106 29.6088 83.9023 29.6644 84.1957 29.6559C84.6714 29.6716 85.139 29.5296 85.5255 29.2519C85.8345 29.0075 86.0727 28.6852 86.2156 28.3182C86.2553 28.2291 86.3223 28.1548 86.4069 28.1061C86.4915 28.0574 86.5893 28.0367 86.6864 28.0471L86.6936 28.0435ZM92.1262 17.6289H95.3305C95.3902 17.6289 95.4493 17.6407 95.5044 17.6635C95.5596 17.6863 95.6097 17.7198 95.652 17.762C95.6942 17.8041 95.7277 17.8542 95.7505 17.9093C95.7734 17.9645 95.7851 18.0235 95.7851 18.0832V23.883C95.7849 23.975 95.8126 24.0649 95.8645 24.1408C95.9165 24.2167 95.9904 24.2751 96.0763 24.3082C96.1621 24.3413 96.2561 24.3475 96.3456 24.3261C96.4351 24.3047 96.516 24.2566 96.5776 24.1883L98.6479 21.7822C98.6905 21.7325 98.7435 21.6926 98.803 21.6653C98.8626 21.638 98.9274 21.624 98.9929 21.6242H102.614C102.704 21.6241 102.793 21.6509 102.868 21.7013C102.943 21.7517 103.001 21.8232 103.035 21.9069C103.07 21.9905 103.078 22.0825 103.06 22.1709C103.041 22.2594 102.997 22.3403 102.932 22.4035L100.219 25.052C100.146 25.1228 100.099 25.2158 100.085 25.3164C100.071 25.417 100.092 25.5192 100.143 25.6068L103.558 31.4354C103.598 31.5045 103.619 31.5829 103.619 31.6628C103.619 31.7426 103.598 31.8211 103.558 31.8903C103.518 31.9595 103.461 32.0169 103.392 32.0569C103.322 32.0968 103.244 32.1178 103.164 32.1177H99.701C99.6168 32.118 99.5341 32.0948 99.4624 32.0507C99.3906 32.0066 99.3326 31.9434 99.2949 31.8681L97.5822 28.4655C97.5498 28.4026 97.5032 28.3481 97.4461 28.3064C97.3889 28.2647 97.3228 28.2368 97.253 28.2252C97.1832 28.2135 97.1116 28.2182 97.044 28.2391C96.9763 28.2599 96.9145 28.2962 96.8634 28.3451L95.9271 29.2573C95.8837 29.2984 95.8488 29.3476 95.8244 29.4021C95.8001 29.4566 95.7867 29.5154 95.7851 29.5751V31.6634C95.7851 31.7839 95.7372 31.8995 95.652 31.9847C95.5667 32.0699 95.451 32.1177 95.3305 32.1177H92.119C91.9985 32.1177 91.8828 32.0699 91.7976 31.9847C91.7123 31.8995 91.6644 31.7839 91.6644 31.6634V18.0832C91.6653 17.9633 91.7137 17.8487 91.7988 17.7643C91.884 17.6799 91.9991 17.6325 92.119 17.6325L92.1262 17.6289ZM105.02 29.1478L108.12 28.8569C108.215 28.8493 108.31 28.8711 108.391 28.9193C108.473 28.9675 108.538 29.0398 108.577 29.1262C108.7 29.4121 108.897 29.66 109.148 29.8445C109.504 30.0638 109.917 30.1702 110.334 30.1497C110.875 30.1497 111.294 30.0348 111.592 29.805C111.699 29.7352 111.786 29.64 111.847 29.5282C111.907 29.4163 111.939 29.2911 111.939 29.1639C111.936 29.0206 111.892 28.8811 111.811 28.7628C111.729 28.6444 111.615 28.5523 111.483 28.4978C111.265 28.3864 110.688 28.2482 109.752 28.083C108.354 27.8436 107.383 27.6185 106.839 27.4078C106.289 27.1959 105.812 26.8307 105.464 26.3556C105.095 25.8711 104.898 25.2769 104.905 24.6677C104.891 24.0199 105.104 23.3875 105.509 22.8811C105.946 22.3585 106.521 21.9701 107.17 21.7606C107.875 21.5152 108.822 21.3919 110.009 21.3907C111.262 21.3907 112.187 21.4865 112.782 21.678C113.345 21.8497 113.858 22.1567 114.275 22.5722C114.57 22.8761 114.816 23.2238 115.003 23.6029C115.037 23.6689 115.054 23.742 115.053 23.8161C115.052 23.8901 115.033 23.9628 114.998 24.0279C114.962 24.0929 114.912 24.1484 114.85 24.1895C114.788 24.2306 114.718 24.256 114.644 24.2637L111.795 24.5438C111.706 24.5541 111.616 24.5369 111.536 24.4946C111.457 24.4522 111.393 24.3867 111.352 24.3068C111.264 24.1159 111.129 23.9512 110.958 23.8292C110.616 23.6115 110.217 23.5015 109.811 23.5131C109.357 23.5131 109.024 23.5939 108.818 23.7556C108.722 23.821 108.644 23.9086 108.589 24.0108C108.535 24.113 108.506 24.2269 108.505 24.3427C108.505 24.4681 108.543 24.5905 108.613 24.6942C108.684 24.798 108.784 24.8782 108.9 24.9245C109.165 25.055 109.739 25.1747 110.622 25.2836C111.961 25.4345 112.957 25.6451 113.609 25.9157C114.209 26.1427 114.73 26.5411 115.106 27.0613C115.447 27.5431 115.628 28.1195 115.625 28.7097C115.621 29.3385 115.434 29.9525 115.086 30.4765C114.661 31.0968 114.057 31.5733 113.355 31.843C112.566 32.183 111.493 32.3524 110.137 32.3512C108.22 32.3512 106.853 32.0782 106.038 31.5324C105.394 31.1085 104.904 30.489 104.639 29.7655C104.615 29.7007 104.606 29.6312 104.613 29.5624C104.619 29.4935 104.641 29.427 104.677 29.3679C104.713 29.3088 104.762 29.2587 104.82 29.2211C104.879 29.1836 104.944 29.1598 105.013 29.1514L105.02 29.1478Z" fill="black"/>
<path d="M12.1807 28.209C11.1052 29.291 9.69182 29.9734 8.17498 30.1428C6.62409 30.335 4.71557 30.2057 3.5241 29.0762C2.27692 27.8965 2.29309 26.4744 3.05506 25.0325C3.29048 24.589 3.62114 24.2029 3.78468 23.7217C3.96439 23.183 3.78468 22.6551 3.59419 22.1362C3.48978 21.871 3.41212 21.5961 3.36236 21.3156C3.29327 20.842 3.34902 20.3587 3.5241 19.9132C3.78529 19.2631 4.27095 18.7279 4.89306 18.4047C5.51517 18.0816 6.23256 17.9918 6.91522 18.1517C8.64402 18.5719 9.68454 20.5094 8.72848 22.0805C8.42298 22.5833 8.11388 23.2064 8.38704 23.7289C8.71411 24.3538 9.5821 24.3735 10.1841 24.2891C10.8185 24.2 11.4138 23.9301 11.8986 23.5116C12.0655 23.3659 12.2124 23.1986 12.3352 23.0142C12.6141 22.5931 12.8032 22.119 12.8907 21.6217C12.9782 21.1243 12.9623 20.6142 12.8438 20.1233L12.833 20.073C12.8205 20.0227 12.8061 19.9725 12.7917 19.924C12.6041 19.3461 12.2676 18.8278 11.8159 18.4211C11.0563 17.7172 9.96488 17.3652 8.54159 17.3652H0.718837C0.52819 17.3652 0.345351 17.4409 0.210543 17.5756C0.0757345 17.7103 0 17.893 0 18.0835L0 31.3998C0 31.5903 0.0757345 31.773 0.210543 31.9077C0.345351 32.0424 0.52819 32.118 0.718837 32.118H7.87666C8.56091 32.084 9.24293 32.0145 9.91996 31.9097C10.6927 31.8092 11.2702 31.6482 11.6524 31.4267C12.2607 31.0848 12.7668 30.5871 13.1188 29.9848C13.4809 29.3581 13.6672 28.6453 13.6579 27.9217C13.6655 27.4044 13.5734 26.8905 13.3865 26.408C13.0983 27.077 12.6895 27.6874 12.1807 28.209Z" fill="black"/>
<path d="M3.5241 19.917H1.75037C1.75037 19.917 1.35142 21.7808 3.59419 22.1364C3.48979 21.8712 3.41213 21.5963 3.36237 21.3158C3.29391 20.8434 3.34965 20.3613 3.5241 19.917Z" fill="url(#paint0_linear_406_1805)"/>
</g>
<defs>
<linearGradient id="paint0_linear_406_1805" x1="2.6579" y1="22.3231" x2="2.6579" y2="19.8452" gradientUnits="userSpaceOnUse">
<stop stop-color="#F26522"/>
<stop offset="0.29" stop-color="#F26923"/>
<stop offset="0.56" stop-color="#F47428"/>
<stop offset="0.82" stop-color="#F6872F"/>
<stop offset="1" stop-color="#F89936"/>
</linearGradient>
<clipPath id="clip0_406_1805">
<rect width="115.625" height="26.875" fill="white" transform="translate(0 17.3652)"/>
</clipPath>
</defs>
</svg>
