<svg width="647" height="109" viewBox="0 0 647 109" fill="none" xmlns="http://www.w3.org/2000/svg">
<path d="M72.53 91.36C74.4424 90.4733 76.2502 89.3765 77.92 88.09C79.6783 86.7213 81.2103 85.0847 82.46 83.24C83.8157 81.2157 84.8637 79.0017 85.57 76.67C86.3963 73.9547 86.7977 71.128 86.76 68.29C86.798 65.4607 86.4069 62.642 85.6 59.93C84.9046 57.6066 83.8556 55.4042 82.49 53.4C81.2351 51.5665 79.7229 49.923 78 48.52C73.3195 44.8039 67.5637 42.6994 61.59 42.52H25.25C23.9644 42.5936 22.6775 42.3977 21.4721 41.9448C20.2666 41.4918 19.1691 40.792 18.25 39.89C16.5003 37.9207 15.5983 35.3405 15.74 32.71C15.6165 30.0761 16.5159 27.4963 18.25 25.51C19.1512 24.5775 20.2433 23.8508 21.4515 23.3796C22.6597 22.9084 23.9554 22.7039 25.25 22.78H71C73.0926 22.78 75.0994 21.9487 76.5791 20.4691C78.0587 18.9894 78.89 16.9826 78.89 14.89C78.89 12.7974 78.0587 10.7906 76.5791 9.31093C75.0994 7.83127 73.0926 7 71 7H25.25C22.4459 7.04756 19.6649 7.51612 17 8.39C13.8721 9.35554 10.974 10.9487 8.48261 13.0721C5.99125 15.1955 3.95899 17.8046 2.51001 20.74C0.732529 24.4662 -0.128072 28.5635 1.3683e-05 32.69C-0.126031 36.8324 0.734276 40.9454 2.51001 44.69C4.02384 47.7502 6.17137 50.4534 8.81001 52.62C11.2388 54.5843 14.0178 56.0706 17 57C19.6632 57.8627 22.4408 58.3211 25.24 58.36H61.44C62.8086 58.3354 64.1684 58.5836 65.44 59.09C66.5804 59.5457 67.6052 60.2494 68.44 61.15C69.2821 62.057 69.9318 63.1252 70.35 64.29C70.8053 65.574 71.0321 66.9278 71.02 68.29C71.1549 70.9093 70.2491 73.4757 68.5 75.43C67.5854 76.3407 66.4897 77.049 65.2838 77.5089C64.0779 77.9689 62.7887 78.1703 61.5 78.1H0.730014V93.84H61.45C63.2731 93.8272 65.0897 93.6228 66.87 93.23C68.8191 92.8144 70.717 92.1873 72.53 91.36Z" fill="#231F20"/>
<path d="M169.06 84.3602C172.602 81.0825 175.891 77.5425 178.9 73.7702C182.233 69.6702 185.47 65.2002 188.61 60.3602C191.75 55.5202 194.787 50.4002 197.72 45.0002C198.61 43.3602 199.47 41.7002 200.31 40.0002C201.267 38.1026 201.432 35.9023 200.767 33.8835C200.102 31.8647 198.663 30.1926 196.765 29.2352C194.867 28.2778 192.667 28.1134 190.648 28.7782C188.629 29.443 186.957 30.8826 186 32.7802C184.733 35.2802 183.44 37.7835 182.12 40.2902C180.053 44.2902 177.837 48.2069 175.47 52.0402C173.103 55.8735 170.55 59.6169 167.81 63.2702C165.013 66.951 161.938 70.4112 158.61 73.6202V36.4802C158.636 34.9684 158.249 33.4782 157.49 32.1702C156.629 30.8009 155.38 29.7188 153.902 29.0617C152.424 28.4046 150.783 28.2022 149.19 28.4802C147.672 28.782 146.279 29.5307 145.19 30.6302L113.82 65.6902V36.2602C113.817 34.1824 112.994 32.1897 111.53 30.7157C110.065 29.2418 108.078 28.406 106 28.3902C104.967 28.3902 103.943 28.5938 102.988 28.9893C102.033 29.3848 101.166 29.9645 100.435 30.6953C99.7043 31.4261 99.1246 32.2936 98.7291 33.2485C98.3336 34.2033 98.13 35.2267 98.13 36.2602V85.9102C98.1194 86.9893 98.334 88.0587 98.76 89.0502C99.1694 89.9936 99.7567 90.8492 100.49 91.5702C101.215 92.2758 102.067 92.8389 103 93.2302C104.921 94.0258 107.079 94.0258 109 93.2302C109.99 92.8197 110.888 92.2144 111.64 91.4502L142.87 56.5102V85.9102C142.863 86.987 143.07 88.0545 143.48 89.0502C143.867 89.9984 144.446 90.8563 145.18 91.5702C146.706 93.0426 148.749 93.8576 150.87 93.8402C153.949 93.747 156.954 92.8804 159.61 91.3202C163.03 89.3911 166.203 87.054 169.06 84.3602Z" fill="#231F20"/>
<path d="M219.4 28.3901C217.313 28.3901 215.311 29.2193 213.835 30.6952C212.359 32.1711 211.53 34.1729 211.53 36.2601V93.8401H227.27V36.2601C227.267 34.1737 226.437 32.1735 224.962 30.6981C223.487 29.2228 221.486 28.3928 219.4 28.3901Z" fill="#231F20"/>
<path d="M218.64 0.72998C216.754 0.72998 214.946 1.47907 213.613 2.81245C212.279 4.14583 211.53 5.95429 211.53 7.83998C211.53 9.72567 212.279 11.5341 213.613 12.8675C214.946 14.2009 216.754 14.95 218.64 14.95H220.15C222.036 14.95 223.844 14.2009 225.178 12.8675C226.511 11.5341 227.26 9.72567 227.26 7.83998C227.26 5.95429 226.511 4.14583 225.178 2.81245C223.844 1.47907 222.036 0.72998 220.15 0.72998H218.64Z" fill="#231F20"/>
<path d="M260 17.35C260.661 16.7758 261.429 16.338 262.259 16.0617C263.09 15.7854 263.967 15.6761 264.84 15.74H292.45C294.537 15.74 296.539 14.9108 298.015 13.4349C299.491 11.959 300.32 9.95725 300.32 7.87C300.32 5.78275 299.491 3.78098 298.015 2.30507C296.539 0.829158 294.537 0 292.45 0L264.68 0C263.106 0.0112748 261.538 0.185538 260 0.52C258.279 0.865885 256.602 1.40253 255 2.12C253.326 2.86758 251.748 3.81442 250.3 4.94C248.762 6.11794 247.413 7.5242 246.3 9.11C245.101 10.8472 244.17 12.7553 243.54 14.77C242.836 17.1277 242.499 19.5797 242.54 22.04V93.84H258.29V22C258.244 21.1494 258.371 20.2982 258.665 19.4986C258.959 18.6991 259.414 17.9679 260 17.35Z" fill="#231F20"/>
<path d="M300.28 36.2601C300.28 34.1729 299.451 32.1711 297.975 30.6952C296.499 29.2193 294.497 28.3901 292.41 28.3901H254.68V44.1301H292.41C294.497 44.1301 296.499 43.301 297.975 41.8251C299.451 40.3492 300.28 38.3474 300.28 36.2601Z" fill="#231F20"/>
<path d="M362.21 44.13C364.297 44.13 366.299 43.3008 367.775 41.8249C369.251 40.349 370.08 38.3473 370.08 36.26C370.08 34.1727 369.251 32.171 367.775 30.6951C366.299 29.2192 364.297 28.39 362.21 28.39H342.6V15C342.6 12.8783 341.757 10.8434 340.257 9.34315C338.757 7.84285 336.722 7 334.6 7C332.478 7 330.443 7.84285 328.943 9.34315C327.443 10.8434 326.6 12.8783 326.6 15V28.39H314.08C311.993 28.39 309.991 29.2192 308.515 30.6951C307.039 32.171 306.21 34.1727 306.21 36.26C306.21 38.3473 307.039 40.349 308.515 41.8249C309.991 43.3008 311.993 44.13 314.08 44.13H326.67V93.84H342.6V44.13H362.21Z" fill="#231F20"/>
<path d="M557.45 91.5701C558.165 90.8469 558.733 89.9909 559.12 89.0501C559.527 88.0537 559.731 86.9863 559.72 85.9101V36.2601C559.72 34.1729 558.891 32.1711 557.415 30.6952C555.939 29.2193 553.937 28.3901 551.85 28.3901C549.767 28.3981 547.772 29.2304 546.301 30.7052C544.83 32.1799 544.003 34.1771 544 36.2601V78.1001H516.44C514.63 78.1182 512.833 77.7995 511.14 77.1601C509.547 76.5609 508.094 75.642 506.87 74.4601C505.642 73.2662 504.666 71.8381 504 70.2601C503.269 68.5062 502.908 66.6201 502.94 64.7201V36.2601C502.937 34.1737 502.107 32.1735 500.632 30.6981C499.157 29.2228 497.156 28.3928 495.07 28.3901C492.983 28.3901 490.981 29.2193 489.505 30.6952C488.029 32.1711 487.2 34.1729 487.2 36.2601V64.7201C487.153 67.9582 487.612 71.1837 488.56 74.2801C489.387 76.9365 490.6 79.4568 492.16 81.7601C493.602 83.8643 495.371 85.7245 497.4 87.2701C499.326 88.7331 501.405 89.9837 503.6 91.0001C505.677 91.9713 507.863 92.6929 510.11 93.1501C512.152 93.582 514.233 93.8064 516.32 93.8201H551.91C552.961 93.8306 554.003 93.6229 554.97 93.2101C555.895 92.8293 556.737 92.2723 557.45 91.5701Z" fill="#231F20"/>
<path d="M645.69 48.0002C644.88 45.3372 643.666 42.8145 642.09 40.5202C640.643 38.4271 638.886 36.5659 636.88 35.0002C634.971 33.5221 632.901 32.2642 630.71 31.2502C628.621 30.2817 626.426 29.5602 624.17 29.1002C622.107 28.671 620.007 28.4465 617.9 28.4302H582.42C580.323 28.431 578.309 29.2447 576.8 30.7002C576.071 31.4067 575.492 32.2538 575.1 33.1902C574.696 34.1559 574.492 35.1934 574.5 36.2402V93.8402H590.24V44.1302H617.78C619.589 44.1178 621.385 44.4364 623.08 45.0702C624.677 45.6731 626.135 46.5962 627.363 47.7827C628.59 48.9693 629.563 50.3943 630.22 51.9702C630.951 53.7241 631.312 55.6102 631.28 57.5102V93.8402H647V57.5102C647.048 54.2921 646.606 51.0854 645.69 48.0002Z" fill="#231F20"/>
<path d="M403.27 63.5802C434.27 48.5802 481.76 20.8002 463.27 6.2702C441.27 -11.0498 372.89 14.1402 372.89 14.1402C387.57 12.3559 402.4 12.1715 417.12 13.5902C442 16.0702 403 40.2002 374.62 63.9002C347.85 86.2602 344.7 101.41 353 108.3C353.28 89.7202 378.76 75.4002 403.27 63.5802Z" fill="#066AC0"/>
<path d="M451 47.0498L430.67 60.1198C441.67 92.1198 471.14 95.8698 471.14 95.8698C439.49 70.5098 451 47.0498 451 47.0498Z" fill="#066AC0"/>
<path d="M474.89 79.8399C473.532 79.8379 472.205 80.2388 471.075 80.9918C469.945 81.7448 469.065 82.8161 468.544 84.07C468.024 85.3239 467.887 86.7041 468.151 88.0357C468.416 89.3674 469.069 90.5906 470.029 91.5506C470.989 92.5106 472.213 93.1641 473.544 93.4285C474.876 93.6929 476.256 93.5562 477.51 93.0358C478.764 92.5153 479.835 91.6345 480.588 90.5048C481.341 89.3752 481.742 88.0475 481.74 86.6899C481.74 84.8731 481.018 83.1308 479.734 81.8462C478.449 80.5616 476.707 79.8399 474.89 79.8399Z" fill="#FFF100"/>
</svg>
