<svg xmlns="http://www.w3.org/2000/svg" viewBox="0 0 184.66 184.66"><defs><style>.cls-1{fill:#066ac0;}.cls-2{fill:#fff;}.cls-3{fill:#fff100;}</style></defs><g id="Layer_2" data-name="Layer 2"><g id="Layer_1-2" data-name="Layer 1"><rect class="cls-1" width="184.66" height="184.66" rx="48.29"/><path class="cls-2" d="M152.57,39.31C125.05,17.69,39.72,49.14,39.72,49.14A254.76,254.76,0,0,1,95,48.46c31.11,3.09-17.66,33.23-53.08,62.81-33.42,27.92-37.35,46.84-27,55.44.39-23.19,32.2-41.07,62.82-55.83C116.4,92.2,175.66,57.45,152.57,39.31Z"/><path class="cls-2" d="M137.24,90.23l-25.36,16.32c13.76,39.91,50.52,44.64,50.52,44.64C122.89,119.53,137.24,90.23,137.24,90.23Z"/><path class="cls-3" d="M166.29,127.2a8.56,8.56,0,1,0,8.56,8.55A8.55,8.55,0,0,0,166.29,127.2Z"/></g></g></svg>