<svg width="250" height="59" viewBox="0 0 250 59" fill="none" xmlns="http://www.w3.org/2000/svg">
<g clip-path="url(#clip0_743_1042)">
<path d="M42.1018 0.994766H14.9087C6.67484 0.994766 0 7.66961 0 15.9034V43.0966C0 51.3304 6.67484 58.0052 14.9087 58.0052H42.1018C50.3356 58.0052 57.0105 51.3304 57.0105 43.0966V15.9034C57.0105 7.66961 50.3356 0.994766 42.1018 0.994766Z" fill="#066AC0"/>
<path d="M47.1037 13.1312C38.6074 6.45637 12.2633 16.166 12.2633 16.166C17.9277 15.4771 23.6503 15.4067 29.33 15.9561C38.9346 16.91 23.8778 26.2152 12.9425 35.3475C2.62463 43.9673 1.41132 49.8085 4.60669 52.4636C4.7271 45.3041 14.5479 39.784 24.0012 35.2271C35.9368 29.46 54.2323 18.7316 47.1037 13.1312Z" fill="white"/>
<path d="M42.3695 28.8518L34.54 33.8903C38.7882 46.2118 50.1372 47.6721 50.1372 47.6721C37.9392 37.8977 42.3695 28.8518 42.3695 28.8518Z" fill="white"/>
<path d="M51.339 40.2654C50.8162 40.2654 50.3051 40.4205 49.8705 40.711C49.4358 41.0016 49.0971 41.4145 48.8972 41.8976C48.6972 42.3806 48.6451 42.9122 48.7473 43.4249C48.8495 43.9376 49.1015 44.4085 49.4714 44.778C49.8413 45.1475 50.3125 45.3989 50.8254 45.5005C51.3382 45.6022 51.8697 45.5494 52.3525 45.3489C52.8354 45.1484 53.2479 44.8092 53.5379 44.3742C53.8279 43.9392 53.9824 43.4279 53.9818 42.9051C53.9818 42.5582 53.9134 42.2147 53.7806 41.8942C53.6477 41.5738 53.453 41.2826 53.2076 41.0375C52.9621 40.7923 52.6708 40.598 52.3501 40.4655C52.0295 40.333 51.6859 40.265 51.339 40.2654Z" fill="#FFF100"/>
</g>
<path d="M72.0092 36.2254H76.2968C76.3412 38.5951 77.1262 40.4834 78.6517 41.8904C80.1919 43.2974 82.2432 44.0009 84.8054 44.0009C87.338 44.0009 89.33 43.4677 90.7814 42.4013C92.2476 41.335 92.9807 39.8836 92.9807 38.0471C92.9807 35.5441 90.2408 33.641 84.761 32.3377C84.4351 32.2636 84.1833 32.2044 84.0056 32.1599C79.5625 31.1084 76.6226 29.9384 75.186 28.6499C73.7642 27.3465 73.0533 25.5026 73.0533 23.1182C73.0533 20.2005 74.1197 17.8605 76.2524 16.098C78.3851 14.3208 81.2213 13.4321 84.761 13.4321C88.3747 13.4321 91.2183 14.3652 93.2918 16.2313C95.3652 18.0826 96.4168 20.63 96.4464 23.8735L92.2032 23.8957C92.0551 21.7038 91.3072 20.0228 89.9594 18.8528C88.6265 17.6827 86.7974 17.0977 84.4722 17.0977C82.295 17.0977 80.5548 17.5791 79.2515 18.5417C77.9482 19.4896 77.2965 20.7559 77.2965 22.3406C77.2965 24.8732 79.992 26.7615 85.383 28.0056C86.1828 28.1981 86.7974 28.3462 87.2269 28.4499L87.6934 28.561C91.2183 29.4052 93.5584 30.316 94.7136 31.2935C95.5874 32.034 96.2538 32.9375 96.713 34.0038C97.1721 35.0554 97.4017 36.2328 97.4017 37.5361C97.4017 40.6907 96.2687 43.2011 94.0027 45.0672C91.7515 46.9333 88.7005 47.8664 84.8498 47.8664C80.8806 47.8664 77.7852 46.8667 75.5637 44.8673C73.3569 42.8531 72.1721 39.9724 72.0092 36.2254ZM106.843 47L99.7343 23.207H103.889L108.932 41.4016L113.619 23.207H118.262L122.905 41.4016L128.126 23.207H132.236L124.993 47H120.95L115.93 28.6721L110.887 47H106.843ZM135.613 18.8305V14.2763H139.611V18.8305H135.613ZM135.613 47V23.207H139.611V47H135.613ZM146.609 47V26.3839H142.699V23.207H146.609V19.697C146.609 17.7272 147.054 16.2535 147.942 15.276C148.846 14.2837 150.193 13.7876 151.985 13.7876C152.267 13.7876 152.622 13.8098 153.052 13.8542C153.481 13.8987 154.111 13.9801 154.94 14.0986V17.6975C154.511 17.6235 154.148 17.5717 153.852 17.542C153.57 17.4976 153.341 17.4754 153.163 17.4754C152.23 17.4754 151.578 17.7346 151.208 18.2529C150.838 18.7713 150.653 19.7562 150.653 21.2076V23.207H154.94V26.3839H150.653V47H146.609ZM162.471 41.0018C162.471 42.0681 162.619 42.779 162.916 43.1345C163.227 43.4899 163.789 43.6676 164.604 43.6676C164.841 43.6676 165.122 43.6602 165.448 43.6454C165.789 43.6306 166.226 43.601 166.759 43.5566V46.9556C166.092 47.074 165.493 47.1629 164.959 47.2221C164.441 47.2814 163.975 47.311 163.56 47.311C161.679 47.311 160.361 46.9481 159.605 46.2224C158.85 45.4967 158.472 44.2082 158.472 42.3569V26.3839H154.918V23.207H158.472V16.5646H162.471V23.207H166.759V26.3839H162.471V41.0018ZM175.401 18.1196V29.2053H182.999C185.738 29.2053 187.671 28.7609 188.797 27.8723C189.937 26.9837 190.507 25.5026 190.507 23.4292C190.507 21.489 189.974 20.1191 188.908 19.3193C187.842 18.5195 185.872 18.1196 182.999 18.1196H175.401ZM171.047 14.2763H183.732C185.79 14.2763 187.301 14.3652 188.264 14.5429C189.241 14.7207 190.115 15.0169 190.885 15.4316C192.262 16.1869 193.307 17.2384 194.018 18.5862C194.743 19.9339 195.106 21.5186 195.106 23.3403C195.106 25.1028 194.728 26.6134 193.973 27.8723C193.218 29.1164 192.092 30.0939 190.596 30.8048C191.87 31.1602 192.773 31.7601 193.307 32.6042C193.855 33.4484 194.195 34.8776 194.329 36.8919L194.706 42.2903C194.78 43.4455 194.928 44.3119 195.151 44.8895C195.387 45.4523 195.736 45.8522 196.195 46.0891V47H191.063C190.648 46.3187 190.359 44.8599 190.196 42.6235V42.4902L189.93 38.2248C189.782 36.0329 189.315 34.6111 188.53 33.9594C187.745 33.3077 185.783 32.9819 182.643 32.9819H175.445V47H171.047V14.2763ZM204.748 23.207V37.8027C204.748 40.1428 205.111 41.7719 205.836 42.6901C206.577 43.5936 207.821 44.0453 209.568 44.0453C211.879 44.0453 213.627 43.3714 214.811 42.0237C215.996 40.6611 216.589 38.6617 216.589 36.0255V23.207H220.587V47H216.766V43.4455C215.937 44.8229 214.863 45.8596 213.545 46.5557C212.227 47.2518 210.679 47.5998 208.902 47.5998C207.243 47.5998 205.799 47.3184 204.57 46.7556C203.341 46.1928 202.4 45.3931 201.749 44.3563C201.378 43.7787 201.112 43.1048 200.949 42.3347C200.786 41.5497 200.704 40.3131 200.704 38.6247V37.4917V23.207H204.748ZM242.536 47V32.3599C242.536 30.0198 242.174 28.4055 241.448 27.5169C240.737 26.6134 239.508 26.1617 237.76 26.1617C235.524 26.1617 233.784 26.7986 232.539 28.0723C231.31 29.3311 230.696 31.1232 230.696 33.4484V47H226.697V23.207H230.518V26.6727C231.436 25.2953 232.525 24.2734 233.784 23.6069C235.042 22.9404 236.501 22.6072 238.16 22.6072C239.952 22.6072 241.463 22.8812 242.692 23.4292C243.921 23.9624 244.869 24.7695 245.536 25.8507C245.906 26.4283 246.172 27.1096 246.335 27.8945C246.498 28.6647 246.58 29.8939 246.58 31.5823V32.7153V47H242.536Z" fill="black"/>
<defs>
<clipPath id="clip0_743_1042">
<rect width="57.0105" height="57.0105" fill="white" transform="translate(0 0.994766)"/>
</clipPath>
</defs>
</svg>
