<svg width="150" height="41" viewBox="0 0 150 41" fill="none" xmlns="http://www.w3.org/2000/svg">
<g clip-path="url(#clip0_1020_895)">
<path d="M29.6831 0H10.5111C4.70598 0 0 4.70598 0 10.5111V29.6831C0 35.4882 4.70598 40.1942 10.5111 40.1942H29.6831C35.4882 40.1942 40.1942 35.4882 40.1942 29.6831V10.5111C40.1942 4.70598 35.4882 0 29.6831 0Z" fill="#066AC0"/>
<path d="M33.2093 8.55599C27.2191 3.85005 8.64569 10.6956 8.64569 10.6956C12.6393 10.21 16.6739 10.1603 20.6783 10.5476C27.4499 11.2202 16.8343 17.7807 9.12455 24.2192C1.85015 30.2965 0.994723 34.4147 3.24757 36.2867C3.33246 31.239 10.2564 27.3471 16.9214 24.1344C25.3363 20.0684 38.2352 12.5045 33.2093 8.55599Z" fill="white"/>
<path d="M29.8725 19.6396L24.3525 23.192C27.3476 31.879 35.349 32.9086 35.349 32.9086C26.749 26.0173 29.8725 19.6396 29.8725 19.6396Z" fill="white"/>
<path d="M36.1957 27.6875C35.8271 27.6875 35.4668 27.7968 35.1603 28.0017C34.8539 28.2065 34.6151 28.4976 34.4741 28.8382C34.3331 29.1788 34.2964 29.5535 34.3684 29.915C34.4405 30.2765 34.6182 30.6085 34.879 30.869C35.1398 31.1295 35.472 31.3068 35.8335 31.3784C36.1951 31.4501 36.5698 31.4128 36.9102 31.2715C37.2507 31.1301 37.5415 30.891 37.746 30.5843C37.9504 30.2776 38.0593 29.9172 38.0589 29.5485C38.0589 29.304 38.0107 29.0618 37.917 28.8359C37.8234 28.6099 37.6861 28.4047 37.5131 28.2318C37.34 28.059 37.1346 27.9219 36.9086 27.8285C36.6825 27.7351 36.4403 27.6872 36.1957 27.6875Z" fill="#FFF100"/>
</g>
<path d="M49.4695 24.9336H52.121C52.1485 26.399 52.6339 27.5668 53.5773 28.4369C54.5298 29.307 55.7983 29.742 57.3828 29.742C58.9489 29.742 60.1808 29.4123 61.0784 28.7529C61.9851 28.0934 62.4384 27.1959 62.4384 26.0602C62.4384 24.5123 60.7441 23.3354 57.3553 22.5294C57.1538 22.4836 56.9981 22.447 56.8882 22.4195C54.1405 21.7692 52.3225 21.0457 51.4341 20.2489C50.5548 19.4429 50.1152 18.3026 50.1152 16.828C50.1152 15.0238 50.7747 13.5767 52.0935 12.4868C53.4124 11.3877 55.1663 10.8382 57.3553 10.8382C59.59 10.8382 61.3485 11.4152 62.6308 12.5692C63.913 13.714 64.5633 15.2894 64.5816 17.2951L61.9576 17.3089C61.866 15.9534 61.4035 14.9139 60.57 14.1903C59.7457 13.4668 58.6146 13.105 57.1767 13.105C55.8303 13.105 54.7542 13.4026 53.9482 13.998C53.1422 14.5841 52.7392 15.3672 52.7392 16.3472C52.7392 17.9134 54.4061 19.0811 57.74 19.8505C58.2345 19.9695 58.6146 20.0611 58.8802 20.1252L59.1687 20.1939C61.3485 20.716 62.7956 21.2792 63.51 21.8837C64.0504 22.3417 64.4625 22.9004 64.7465 23.5598C65.0304 24.2101 65.1724 24.9382 65.1724 25.7442C65.1724 27.695 64.4717 29.2474 63.0704 30.4015C61.6783 31.5555 59.7915 32.1325 57.4102 32.1325C54.9557 32.1325 53.0415 31.5143 51.6676 30.2778C50.303 29.0322 49.5703 27.2508 49.4695 24.9336ZM71.0111 31.5967L66.6149 16.883H69.1839L72.3025 28.1346L75.2013 16.883H78.0726L80.9439 28.1346L84.1724 16.883H86.7139L82.2353 31.5967H79.7349L76.6301 20.2626L73.5115 31.5967H71.0111ZM88.8022 14.1766V11.3602H91.275V14.1766H88.8022ZM88.8022 31.5967V16.883H91.275V31.5967H88.8022ZM95.6026 31.5967V18.8476H93.1847V16.883H95.6026V14.7124C95.6026 13.4942 95.8774 12.5829 96.4269 11.9784C96.9856 11.3648 97.819 11.058 98.9273 11.058C99.1013 11.058 99.3211 11.0717 99.5867 11.0992C99.8523 11.1267 100.242 11.177 100.754 11.2503V13.4759C100.489 13.4301 100.264 13.3981 100.081 13.3797C99.9073 13.3523 99.7653 13.3385 99.6554 13.3385C99.0784 13.3385 98.6754 13.4988 98.4464 13.8194C98.2175 14.1399 98.103 14.749 98.103 15.6466V16.883H100.754V18.8476H98.103V31.5967H95.6026ZM105.412 27.8873C105.412 28.5468 105.503 28.9864 105.686 29.2062C105.879 29.426 106.227 29.5359 106.731 29.5359C106.877 29.5359 107.051 29.5314 107.253 29.5222C107.463 29.513 107.733 29.4947 108.063 29.4672V31.5692C107.651 31.6425 107.28 31.6974 106.95 31.7341C106.63 31.7707 106.341 31.789 106.085 31.789C104.922 31.789 104.107 31.5646 103.639 31.1158C103.172 30.6671 102.939 29.8702 102.939 28.7254V18.8476H100.741V16.883H102.939V12.7753H105.412V16.883H108.063V18.8476H105.412V27.8873ZM110.426 31.5967V16.883H112.817V19.5207C113.21 18.5316 113.742 17.7943 114.41 17.3089C115.088 16.8143 115.917 16.567 116.897 16.567C117.08 16.567 117.213 16.5716 117.295 16.5808C117.378 16.5808 117.46 16.5899 117.543 16.6082V19.2185C117.478 19.2093 117.405 19.2048 117.323 19.2048C117.24 19.1956 117.117 19.191 116.952 19.191C115.633 19.191 114.626 19.5528 113.929 20.2764C113.243 20.9907 112.899 22.0348 112.899 23.4087V31.5967H110.426ZM122.214 16.883V25.909C122.214 27.3561 122.438 28.3636 122.887 28.9315C123.345 29.4901 124.114 29.7695 125.195 29.7695C126.624 29.7695 127.704 29.3528 128.437 28.5193C129.17 27.6767 129.536 26.4403 129.536 24.81V16.883H132.009V31.5967H129.646V29.3986C129.133 30.2503 128.469 30.8914 127.654 31.3219C126.839 31.7524 125.882 31.9676 124.783 31.9676C123.757 31.9676 122.864 31.7936 122.104 31.4456C121.344 31.0975 120.762 30.6029 120.359 29.9618C120.13 29.6046 119.965 29.1879 119.864 28.7116C119.764 28.2262 119.713 27.4615 119.713 26.4174V25.7167V16.883H122.214ZM145.582 31.5967V22.5432C145.582 21.0961 145.358 20.0978 144.909 19.5482C144.47 18.9895 143.709 18.7102 142.629 18.7102C141.246 18.7102 140.17 19.104 139.4 19.8917C138.64 20.6702 138.26 21.7784 138.26 23.2163V31.5967H135.787V16.883H138.15V19.0262C138.718 18.1744 139.391 17.5424 140.17 17.1303C140.948 16.7181 141.85 16.5121 142.876 16.5121C143.984 16.5121 144.918 16.6815 145.679 17.0204C146.439 17.3501 147.025 17.8493 147.437 18.5179C147.666 18.875 147.831 19.2964 147.932 19.7818C148.032 20.258 148.083 21.0182 148.083 22.0623V22.763V31.5967H145.582Z" fill="black"/>
<defs>
<clipPath id="clip0_1020_895">
<rect width="40.1942" height="40.1942" fill="white"/>
</clipPath>
</defs>
</svg>
